<mxfile host="app.diagrams.net" modified="2023-02-07T16:54:53.865Z" agent="5.0 (Windows NT 10.0; Win64; x64) AppleWebKit/537.36 (KHTML, like Gecko) Chrome/109.0.0.0 Safari/537.36 Edg/109.0.1518.78" etag="sM1SZRpX77P4NonoBy0e" version="20.8.18" type="github">
  <diagram name="Page-1" id="lvcEOnlXKOD-ZdNS2Za4">
    <mxGraphModel dx="2214" dy="796" grid="1" gridSize="10" guides="1" tooltips="1" connect="1" arrows="1" fold="1" page="1" pageScale="1" pageWidth="827" pageHeight="1169" math="0" shadow="0">
      <root>
        <mxCell id="0" />
        <mxCell id="1" parent="0" />
        <mxCell id="4POSTGIkvzdAwCL8Lid4-1" value="HOME PAGE" style="rhombus;whiteSpace=wrap;html=1;" parent="1" vertex="1">
          <mxGeometry x="330" y="60" width="90" height="90" as="geometry" />
        </mxCell>
        <mxCell id="4POSTGIkvzdAwCL8Lid4-2" value="HOMEPAGE.TSX" style="ellipse;whiteSpace=wrap;html=1;aspect=fixed;" parent="1" vertex="1">
          <mxGeometry x="-60" y="190" width="100" height="100" as="geometry" />
        </mxCell>
        <mxCell id="4POSTGIkvzdAwCL8Lid4-3" value="" style="endArrow=classic;html=1;rounded=0;entryX=0.5;entryY=0;entryDx=0;entryDy=0;exitX=0.5;exitY=1;exitDx=0;exitDy=0;" parent="1" source="4POSTGIkvzdAwCL8Lid4-1" target="4POSTGIkvzdAwCL8Lid4-2" edge="1">
          <mxGeometry width="50" height="50" relative="1" as="geometry">
            <mxPoint x="390" y="430" as="sourcePoint" />
            <mxPoint x="440" y="380" as="targetPoint" />
          </mxGeometry>
        </mxCell>
        <mxCell id="4POSTGIkvzdAwCL8Lid4-8" style="edgeStyle=orthogonalEdgeStyle;rounded=0;orthogonalLoop=1;jettySize=auto;html=1;entryX=0.5;entryY=0;entryDx=0;entryDy=0;entryPerimeter=0;" parent="1" source="4POSTGIkvzdAwCL8Lid4-4" target="4POSTGIkvzdAwCL8Lid4-6" edge="1">
          <mxGeometry relative="1" as="geometry" />
        </mxCell>
        <mxCell id="4POSTGIkvzdAwCL8Lid4-9" style="edgeStyle=orthogonalEdgeStyle;rounded=0;orthogonalLoop=1;jettySize=auto;html=1;exitX=0.5;exitY=1;exitDx=0;exitDy=0;entryX=0.541;entryY=0.013;entryDx=0;entryDy=0;entryPerimeter=0;" parent="1" source="4POSTGIkvzdAwCL8Lid4-4" target="4POSTGIkvzdAwCL8Lid4-7" edge="1">
          <mxGeometry relative="1" as="geometry" />
        </mxCell>
        <mxCell id="4POSTGIkvzdAwCL8Lid4-4" value="SearchRoomsForm.tsx" style="ellipse;whiteSpace=wrap;html=1;aspect=fixed;" parent="1" vertex="1">
          <mxGeometry x="130" y="200" width="130" height="130" as="geometry" />
        </mxCell>
        <mxCell id="4POSTGIkvzdAwCL8Lid4-5" value="" style="endArrow=classic;html=1;rounded=0;entryX=0.55;entryY=0.007;entryDx=0;entryDy=0;entryPerimeter=0;exitX=0.5;exitY=1;exitDx=0;exitDy=0;" parent="1" source="4POSTGIkvzdAwCL8Lid4-1" target="4POSTGIkvzdAwCL8Lid4-4" edge="1">
          <mxGeometry width="50" height="50" relative="1" as="geometry">
            <mxPoint x="390" y="430" as="sourcePoint" />
            <mxPoint x="440" y="380" as="targetPoint" />
          </mxGeometry>
        </mxCell>
        <mxCell id="4POSTGIkvzdAwCL8Lid4-6" value="&lt;div style=&quot;color: rgb(204, 204, 204); background-color: rgb(28, 28, 28); font-family: Consolas, &amp;quot;Courier New&amp;quot;, monospace; font-size: 14px; line-height: 19px;&quot;&gt;useForm&lt;/div&gt;" style="shape=cylinder3;whiteSpace=wrap;html=1;boundedLbl=1;backgroundOutline=1;size=15;" parent="1" vertex="1">
          <mxGeometry x="-20" y="400" width="180" height="140" as="geometry" />
        </mxCell>
        <mxCell id="4POSTGIkvzdAwCL8Lid4-7" value="&#xa;&lt;div style=&quot;color: rgb(204, 204, 204); background-color: rgb(28, 28, 28); font-family: Consolas, &amp;quot;Courier New&amp;quot;, monospace; font-weight: normal; font-size: 14px; line-height: 19px;&quot;&gt;&lt;div&gt;&lt;span style=&quot;color: #e6db74;&quot;&gt;sessionStorage.service&lt;/span&gt;&lt;/div&gt;&lt;/div&gt;&#xa;&#xa;" style="shape=cylinder3;whiteSpace=wrap;html=1;boundedLbl=1;backgroundOutline=1;size=15;" parent="1" vertex="1">
          <mxGeometry x="210" y="400" width="170" height="150" as="geometry" />
        </mxCell>
      </root>
    </mxGraphModel>
  </diagram>
</mxfile>
